# xmcd
#
# Track frame offsets:
#	150
#	4298
#	28787
#	51781
#	75771
#	100034
#	115919
#	138155
#	159996
#	182023
#	204234
#	228481
#	249221
#	275090
#
# Disc length: 3760 seconds
#
# Revision: 1
# Processed by: cddbd v1.4PL0 Copyright (c) Steve Scherf et al.
# Submitted via: EasyCDDAExtractor 6.0.0.1
#
DISCID=a70eae0e
DTITLE=Tower Of Power - Oakland Zone
DYEAR=2003
DGENRE=Soul
TTITLE0=Eastside...
TTITLE1=Give Me Your Love
TTITLE2=Get What You Want
TTITLE3=Could've Done It Better
TTITLE4=This Type of Funk
TTITLE5=Pocketful of Soul
TTITLE6=Remember Love
TTITLE7=Oakland Zone
TTITLE8=Life Is What You Make It
TTITLE9=Happy 'Bout That
TTITLE10=Stranger in My Own House
TTITLE11=Back in the Day
TTITLE12=Page One
TTITLE13=Eastside
EXTD=
EXTT0=
EXTT1=
EXTT2=
EXTT3=
EXTT4=
EXTT5=
EXTT6=
EXTT7=
EXTT8=
EXTT9=
EXTT10=
EXTT11=
EXTT12=
EXTT13=
PLAYORDER=
